<?xml version="1.0" standalone="no"?>
<!DOCTYPE svg PUBLIC "-//W3C//DTD SVG 1.1//EN" "http://www.w3.org/Graphics/SVG/1.1/DTD/svg11.dtd" >
<svg xmlns="http://www.w3.org/2000/svg">
<metadata>Generated by IcoMoon</metadata>
<defs>
<font id="icomoon" horiz-adv-x="1024">
<font-face units-per-em="1024" ascent="960" descent="-64" />
<missing-glyph horiz-adv-x="1024" />
<glyph unicode="&#x20;" horiz-adv-x="512" d="" />
<glyph unicode="&#xe900;" glyph-name="Property-1fechar" d="M768 659.2l-44.8 44.8-211.2-211.2-211.2 211.2-44.8-44.8 211.2-211.2-211.2-211.2 44.8-44.8 211.2 211.2 211.2-211.2 44.8 44.8-211.2 211.2 211.2 211.2z" />
<glyph unicode="&#xe901;" glyph-name="Property-1home" d="M531.584 889.152c-5.423 4.259-12.347 6.831-19.872 6.831s-14.449-2.572-19.942-6.884l0.070 0.053-459.84-358.56 39.776-50.304 56.224 43.84v-396.128c0.073-35.317 28.683-63.927 63.993-64h640.007c35.317 0.073 63.927 28.683 64 63.993v395.847l56.224-43.84 39.776 50.304-460.416 358.848zM576 128h-128v256h128v-256zM640 128v256c-0.036 35.332-28.668 63.964-63.997 64h-128.003c-35.332-0.036-63.964-28.668-64-63.997v-256.003h-192v446.016l320 249.28 320-249.6v-445.696h-192z" />
<glyph unicode="&#xe902;" glyph-name="Property-1menu" d="M896 768h-768v-64h768v64zM896 192h-768v-64h768v64zM896 576h-768v-64h768v64zM896 384h-768v-64h768v64z" />
<glyph unicode="&#xe903;" glyph-name="Property-1imagem" d="M128 256h-64v576c0.036 35.332 28.668 63.964 63.997 64h576.003v-64h-576v-576zM672 416c0.521-0.010 1.136-0.016 1.753-0.016 53.019 0 96 42.981 96 96s-42.981 96-96 96c-0.616 0-1.231-0.006-1.845-0.017l0.092 0.001c-52.26-0.985-94.247-43.581-94.247-95.984s41.987-94.999 94.155-95.983l0.092-0.001zM672 544c17.691 0 32.032-14.341 32.032-32.032s-14.341-32.032-32.032-32.032v0c-17.691 0-32.032 14.341-32.032 32.032s14.341 32.032 32.032 32.032v0zM896 736h-608c-35.332-0.036-63.964-28.668-64-63.997v-608.003c0.055-35.324 28.676-63.945 63.995-64h608.005c35.324 0.055 63.945 28.676 64 63.995v608.005c-0.055 35.324-28.676 63.945-63.995 64h-0.005zM896 64h-608v192l128 127.904 178.752-178.752c11.581-11.578 27.578-18.738 45.248-18.738s33.667 7.161 45.248 18.739l50.752 50.752 160-159.904v-32zM896 186.496l-114.752 114.752c-11.581 11.578-27.578 18.738-45.248 18.738s-33.667-7.161-45.248-18.739l-50.752-50.752-178.752 178.752c-11.581 11.578-27.578 18.738-45.248 18.738s-33.667-7.161-45.248-18.739l-82.752-82.752v325.504h608v-485.504z" />
<glyph unicode="&#xe904;" glyph-name="Property-1categoria-passos" d="M928 640h-160v-64h160v-192h-224v-64h96v-68.544c-55.647-14.719-96-64.615-96-123.935 0-70.692 57.308-128 128-128s128 57.308 128 128c0 59.321-40.353 109.217-95.107 123.734l-0.893 0.201v68.544h64c35.324 0.055 63.945 28.676 64 63.995v192.005c-0.036 35.332-28.668 63.964-63.997 64h-0.003zM896 128c0-35.346-28.654-64-64-64s-64 28.654-64 64v0c0 35.346 28.654 64 64 64s64-28.654 64-64v0zM608 768h-160v-64h160v-192h-224v-64h96v-196.544c-55.647-14.719-96-64.615-96-123.935 0-70.692 57.308-128 128-128s128 57.308 128 128c0 59.321-40.353 109.217-95.107 123.734l-0.893 0.201v196.544h64c35.332 0.036 63.964 28.668 64 63.997v192.003c-0.036 35.332-28.668 63.964-63.997 64h-0.003zM576 128c0-35.346-28.654-64-64-64s-64 28.654-64 64v0c0 35.346 28.654 64 64 64s64-28.654 64-64v0zM288 896h-192c-35.332-0.036-63.964-28.668-64-63.997v-192.003c0.036-35.332 28.668-63.964 63.997-64h64.003v-324.544c-55.647-14.719-96-64.615-96-123.935 0-70.692 57.308-128 128-128s128 57.308 128 128c0 59.321-40.353 109.217-95.107 123.734l-0.893 0.201v324.544h64c35.332 0.036 63.964 28.668 64 63.997v192.003c-0.036 35.332-28.668 63.964-63.997 64h-0.003zM256 128c0-35.346-28.654-64-64-64s-64 28.654-64 64v0c0 35.346 28.654 64 64 64s64-28.654 64-64v0zM96 640v192h192l0.064-192h-192.064z" />
<glyph unicode="&#xe905;" glyph-name="Property-1prancheta-edit" d="M950.624 342.624l-96 96c-5.791 5.789-13.789 9.369-22.624 9.369s-16.833-3.58-22.624-9.369l-297.376-297.376v-141.248h141.248l297.376 297.376c5.789 5.791 9.369 13.789 9.369 22.624s-3.58 16.833-9.369 22.624v0zM626.752 64h-50.752v50.752l160 160 50.752-50.752-160-160zM832 269.248l-50.752 50.752 50.752 50.752 50.752-50.752-50.752-50.752zM576 512v-128h64v128h-64zM448 576v-192h64v192h-64zM320 704v-320h64v320h-64zM384 0h-192c-35.332 0.036-63.964 28.668-64 63.997v768.003c0.036 35.332 28.668 63.964 63.997 64h512.003c35.332-0.036 63.964-28.668 64-63.997v-320.003h-64v320h-512v-768h192v-64z" />
<glyph unicode="&#xe906;" glyph-name="Property-1list-check" d="M960 704h-448v-64h448v64zM192 621.12l-82.88 82.88-45.12-45.12 128-128 256 256-45.12 45.12-210.88-210.88zM960 256h-448v-64h448v64zM192 173.12l-82.88 82.88-45.12-45.12 128-128 256 256-45.12 45.12-210.88-210.88z" />
<glyph unicode="&#xe907;" glyph-name="Property-1laptop" d="M832 191.84h-640c-35.332 0.036-63.964 28.668-64 63.997v448.003c0.036 35.332 28.668 63.964 63.997 64h640.003c35.332-0.036 63.964-28.668 64-63.997v-448.003c-0.055-35.324-28.676-63.945-63.995-64h-0.005zM192 703.84v-448h640v448h-640zM960 127.84h-896v-64h896v64z" />
<glyph unicode="&#xe908;" glyph-name="Property-1check" d="M448 274.752l-160 160.032 45.216 45.216 114.784-114.752 242.72 242.752 45.28-45.28-288-287.968zM512 896c-247.424 0-448-200.576-448-448s200.576-448 448-448v0c247.424 0 448 200.576 448 448s-200.576 448-448 448v0zM512 64c-212.077 0-384 171.923-384 384s171.923 384 384 384v0c212.077 0 384-171.923 384-384s-171.923-384-384-384v0z" />
<glyph unicode="&#xe909;" glyph-name="Property-1edio" d="M960 128h-896v-64h896v64zM812.8 672c25.6 25.6 25.6 64 0 89.6l-115.2 115.2c-25.6 25.6-64 25.6-89.6 0l-480-480v-204.8h204.8l480 480zM652.8 832l115.2-115.2-96-96-115.2 115.2 96 96zM192 256v115.2l320 320 115.2-115.2-320-320h-115.2z" />
<glyph unicode="&#xe90a;" glyph-name="Property-1popup" d="M896 832h-576c-35.302-0.109-63.891-28.698-64-63.99v-448.010c0.109-35.302 28.698-63.891 63.99-64h576.010c35.302 0.109 63.891 28.698 64 63.99v448.010c-0.109 35.302-28.698 63.891-63.99 64h-0.010zM896 320h-576v448h576v-448zM576 128h-448v320h64v64h-64c-35.302-0.109-63.891-28.698-64-63.99v-320.010c0.109-35.302 28.698-63.891 63.99-64h448.010c35.302 0.109 63.891 28.698 64 63.99v64.010h-64v-64z" />
<glyph unicode="&#xe90b;" glyph-name="Property-1categoria-nova" d="M672 640h-128v128h-64v-128h-128v-64h128v-128h64v128h128v64zM896 192h-352v128h192c35.324 0.055 63.945 28.676 64 63.995v448.005c-0.036 35.332-28.668 63.964-63.997 64h-448.003c-35.332-0.036-63.964-28.668-64-63.997v-448.003c0.036-35.332 28.668-63.964 63.997-64h192.003v-128h-352c-35.346 0-64-28.654-64-64v0-128h64v128h352v-128h64v128h352v-128h64v128c0 35.346-28.654 64-64 64v0zM288 832h448l0.064-448h-448.064v448z" />
<glyph unicode="&#xe90c;" glyph-name="Property-1estrela" d="M512 751.36l88.32-178.56 14.72-32 32-4.8 197.12-28.48-140.16-137.6-24-23.36 5.76-32 33.6-196.16-176.32 92.48-31.040 13.12-29.76-15.68-176.32-91.2 32 196.16 5.76 32-23.68 24.64-141.44 139.2 229.12 33.28 14.72 32 89.6 176.96zM512 896l-145.6-295.040-325.44-47.040 235.52-229.76-55.68-324.16 291.2 152.96 291.2-152.96-55.68 324.16 235.52 229.44-325.44 47.36-145.6 295.040z" />
<glyph unicode="&#xe90d;" glyph-name="Property-1escada" d="M448 256v256h256v256h256v64h-320v-256h-256v-256h-256v576h-64v-832c0.055-35.324 28.676-63.945 63.995-64h832.005v64h-832v192h320z" />
<glyph unicode="&#xe90e;" glyph-name="Property-1otimizacao" d="M914.72 800l-95.968-96 45.28-45.248 95.936 96.032-45.248 45.216zM512 304l-160 158.752 50.88 50.24 109.12-108.16 237.12 235.168 50.88-50.528-288-285.472zM128 64v82.784l205.248 205.216-45.248 45.28-160-160v658.72h-64v-832c0-35.346 28.654-64 64-64v0h832v64h-832z" />
<glyph unicode="&#xe90f;" glyph-name="Property-1montanha" d="M884.288 128l-315.008 668.608c-10.739 21.151-32.332 35.392-57.25 35.392-25.17 0-46.946-14.529-57.398-35.658l-0.167-0.374-314.752-667.968h-75.712v-64h896v64h-75.712zM511.68 768.672l158.624-336.672-62.304-41.536-96 64-96-64-62.56 41.696 158.24 336.512zM325.92 373.6l90.080-60.064 96 64 96-64 89.92 59.936 115.584-245.472h-603.104l115.52 245.6z" />
<glyph unicode="&#xe910;" glyph-name="Property-1foco" d="M512 896c-247.424 0-448-200.576-448-448s200.576-448 448-448v0c247.424 0 448 200.576 448 448s-200.576 448-448 448v0zM890.88 507.52l-186.88-108.16v380.8c98.401-57.742 167.98-155.545 186.585-270.433l0.295-2.207zM384 362.24v171.52l128 74.24 128-73.92v-171.52l-128-74.56-128 74.24zM640 810.24v-202.24l-309.12 178.56c52.179 28.617 114.331 45.45 180.414 45.45 46.162 0 90.405-8.214 131.349-23.26l-2.642 0.85v0.64zM271.36 746.24l176.64-101.44-320-184.64c3.953 115.952 58.729 218.359 142.631 286.15l0.729 0.57v-0.64zM133.12 388.8l186.88 108.16v-381.12c-98.473 57.806-168.074 155.738-186.588 270.76l-0.292 2.2zM384 86.4v201.6l309.44-178.56c-52.236-28.624-114.449-45.46-180.594-45.46-46.211 0-90.502 8.217-131.493 23.271l2.646-0.85zM752.64 150.4l-176.64 101.12 320 184.64c-3.855-116.073-58.652-218.612-142.632-286.471l-0.728-0.569v1.28z" />
<glyph unicode="&#xe911;" glyph-name="Property-1nos-preparamos" d="M864 192c-14.979-0.073-29.115-3.609-41.671-9.848l0.551 0.248-137.6 137.6h-109.28v-64h82.752l118.88-118.88c-6.272-12.8-9.568-26.88-9.632-41.12 0-53.019 42.981-96 96-96s96 42.981 96 96c0 53.019-42.981 96-96 96v0zM864 64c-17.673 0-32 14.327-32 32s14.327 32 32 32v0c17.673 0 32-14.327 32-32s-14.327-32-32-32v0zM864 544c-41.405-0.127-76.62-26.49-89.902-63.332l-0.21-0.668h-197.888v-64h197.888c13.614-37.43 48.883-63.68 90.283-63.68 52.931 0 95.84 42.909 95.84 95.84s-42.909 95.84-95.84 95.84c-0.060 0-0.12 0-0.18 0h0.009zM864 416c-17.673 0-32 14.327-32 32s14.327 32 32 32v0c17.673 0 32-14.327 32-32s-14.327-32-32-32v0zM864 896c-52.997-0.055-95.945-43.003-96-95.995v-0.005c0.096-15.36 3.936-30.4 11.136-43.936l-120.064-116.064h-83.072v-64h108.928l140.8 136.064c11.298-5.055 24.485-8 38.36-8 53.002 0 95.968 42.966 95.968 95.968s-42.966 95.968-95.968 95.968c-0.031 0-0.062 0-0.093 0h0.005zM864 768c-17.673 0-32 14.327-32 32s14.327 32 32 32v0c17.673 0 32-14.327 32-32s-14.327-32-32-32v0zM576 768h64v64h-64c-38.316-0.132-72.624-17.18-95.863-44.062l-0.137-0.162c-23.377 27.044-57.684 44.092-95.977 44.224h-32.023c-158.985-0.182-287.818-129.015-288-287.983v-192.017c0.182-158.985 129.015-287.818 287.983-288h32.017c38.316 0.132 72.624 17.18 95.863 44.062l0.137 0.162c23.377-27.044 57.684-44.092 95.977-44.224h64.023v64h-64c-35.332 0.036-63.964 28.668-64 63.997v512.003c0.036 35.332 28.668 63.964 63.997 64h0.003zM384 128h-32c-112.291 0.193-205.199 82.935-221.289 190.771l-0.151 1.229h61.44v64h-64v128h96c52.997 0.055 95.945 43.003 96 95.995v64.005h-64v-64c0-17.673-14.327-32-32-32v0h-93.44c16.254 109.058 109.154 191.792 221.418 192h32.022c35.332-0.036 63.964-28.668 64-63.997v-128.003h-64v-64h64v-128h-64c-52.99-0.073-95.927-43.010-96-95.993v-64.007h64v64c0 17.673 14.327 32 32 32v0h64v-128c-0.036-35.332-28.668-63.964-63.997-64h-0.003z" />
<glyph unicode="&#xe912;" glyph-name="Property-1bussola" d="M512 832c212.077 0 384-171.923 384-384s-171.923-384-384-384v0c-212.077 0-384 171.923-384 384s171.923 384 384 384v0zM512 896c-247.424 0-448-200.576-448-448s200.576-448 448-448v0c247.424 0 448 200.576 448 448s-200.576 448-448 448v0zM736 626.88l-45.12 45.12-137.6-137.6c-12.102 5.914-26.333 9.373-41.373 9.373-53.019 0-96-42.981-96-96 0-15.039 3.458-29.271 9.623-41.942l-0.25 0.57-137.28-137.28 45.12-45.12 137.6 137.6c12.102-5.914 26.333-9.373 41.373-9.373 53.019 0 96 42.981 96 96 0 15.039-3.458 29.271-9.623 41.942l0.25-0.57 137.28 137.28zM544 448c0-17.673-14.327-32-32-32s-32 14.327-32 32v0c0 17.673 14.327 32 32 32s32-14.327 32-32v0zM512 672c26.51 0 48 21.49 48 48s-21.49 48-48 48v0c-26.51 0-48-21.49-48-48s21.49-48 48-48v0z" />
<glyph unicode="&#xe913;" glyph-name="Property-1esquerda" d="M448 128l45.12 45.12-242.56 242.88h645.44v64h-645.44l242.56 242.88-45.12 45.12-320-320 320-320z" />
<glyph unicode="&#xe914;" glyph-name="Property-1direita" d="M576 768l-45.76-44.576 242.56-243.424h-644.8v-64h644.8l-242.56-242.336 45.76-45.664 320 320-320 320z" />
<glyph unicode="&#xe915;" glyph-name="Property-1baixo" d="M786.88 429.12l-242.88-242.56v645.44h-64v-645.44l-242.88 242.56-45.12-45.12 320-320 320 320-45.12 45.12z" />
<glyph unicode="&#xe916;" glyph-name="Property-1youtube" d="M512 832c-130.496 0-246.016-13.504-316.256-24-57.504-8.512-103.232-53.504-113.728-111.264-9.056-50.496-18.016-124.224-18.016-216.736 0-92.48 8.992-166.24 18.016-216.736 10.557-57.51 55.851-101.971 112.943-111.16l0.785-0.104c70.496-10.496 186.496-24 316.256-24s245.504 13.504 316 24h0.256c57.504 8.512 103.232 53.504 113.76 111.264 8.96 50.72 17.984 124.48 17.984 216.736 0 92.48-8.992 166.24-18.24 216.736-10.24 57.76-56 102.752-113.504 111.264-70.24 10.496-185.76 24-316.256 24zM512 768c126.016 0 238.72-12.992 306.752-23.264 29.984-4.48 54.24-28 60-59.232 8.512-47.264 17.248-117.248 17.248-205.504s-8.736-158.24-16.992-205.248c-5.76-31.488-30.016-55.008-60.256-59.52-68.48-9.984-181.504-23.232-306.752-23.232s-238.496 13.248-306.752 23.264c-30.794 5.021-54.84 28.808-60.192 59.050l-0.064 0.438c-8.256 47.264-16.992 116.992-16.992 205.248 0 88.512 8.736 158.24 16.992 205.504 5.76 31.232 30.016 54.72 60 59.008h0.256c68.032 10.24 180.768 23.488 306.752 23.488zM384 640v-320l320 160-320 160z" />
<glyph unicode="&#xe917;" glyph-name="Property-1whatsapp" d="M480 896c-229.504 0-416-186.496-416-416 0-83.008 26.752-159.008 68.48-224l-71.488-199.744 222.496 62.72c59.008-32.192 124.512-54.976 196.512-54.976 229.504 0 416 186.496 416 416s-186.496 416-416 416zM480 832c194.752 0 352-157.248 352-352 0-0.148 0-0.324 0-0.5 0-194.157-157.395-351.552-351.552-351.552-67.452 0-130.467 18.996-183.987 51.931l1.522-0.872-11.744 7.232-123.232-34.496 40 111.008-9.76 13.504c-40.795 56.531-65.248 127.209-65.248 203.597 0 0.052 0 0.103 0 0.155v-0.008c0 194.752 157.248 352 352 352zM324 704c-7.264 0-19.264-3.008-29.504-15.008-9.984-11.744-38.496-40.48-38.496-99.008 0-58.24 39.488-114.72 44.992-122.72s77.76-127.776 188.256-179.264c26.24-12.256 46.752-19.52 62.752-24.992 26.496-9.024 50.496-7.744 69.504-4.768 21.248 3.52 65.248 28.768 74.496 56.512 8.992 27.744 9.28 51.52 6.24 56.512-2.496 4.992-9.984 8-20.992 13.76-11.008 5.984-65.248 34.72-75.264 38.464-9.984 4.256-17.472 6.016-24.96-5.76-7.264-11.968-28.288-38.72-34.784-46.464-6.496-8-12.736-9.024-23.744-3.008-11.232 5.984-46.72 18.496-88.736 59.008-32.768 31.488-55.040 70.24-61.248 82.24-6.528 12-0.768 18.24 4.736 24 4.992 5.504 11.008 13.984 16.512 20.992 5.504 6.752 7.232 12 10.976 19.744 3.776 8 2.016 15.040-0.736 20.768-3.008 5.984-24.992 64.48-34.016 88.256-8.96 22.976-18.24 20-24.96 20.224-6.304 0.512-13.792 0.512-21.056 0.512z" />
<glyph unicode="&#xe918;" glyph-name="Property-1linkedin" d="M176.512 896c-62.029-0.271-112.241-50.483-112.512-112.486v-607.258c0-61.504 50.752-112.256 112.512-112.256h607.232c61.852 0.361 111.895 50.404 112.256 112.221v607.267c0 61.76-50.752 112.512-112.256 112.512h-607.232zM176.512 832h607.232c27.008 0 48.256-21.248 48.256-48.512v-607.232c0-27.008-21.248-48.256-48.256-48.256h-607.232c-0.191-0.003-0.416-0.004-0.642-0.004-26.439 0-47.872 21.433-47.872 47.872 0 0.137 0.001 0.273 0.002 0.409v-0.021 607.232c0 27.264 21.248 48.512 48.512 48.512zM256 768c-35.264 0-64-28.736-64-64s28.736-64 64-64c35.264 0 64 28.736 64 64s-28.736 64-64 64zM192 576v-384h128v384h-128zM384 576v-384h128v171.52c0 53.216 4.992 100.992 68.992 100.992 63.008 0 59.008-57.28 59.008-104.512v-168h128v189.504c0 109.984-23.008 194.496-147.744 194.496-60 0-90.24-24-106.752-56h-1.504v56h-128z" />
<glyph unicode="&#xe919;" glyph-name="Property-1instagram" d="M305.504 896c-133.024 0-241.504-108.48-241.504-241.504v-349.216c0-132.768 108.48-241.28 241.504-241.28h349.216c132.768 0 241.28 108.48 241.28 241.504v348.992c0 133.024-108.48 241.504-241.504 241.504h-348.992zM305.504 832h348.992c0.181 0.001 0.395 0.001 0.609 0.001 97.697 0 176.896-79.199 176.896-176.896 0-0.214 0-0.428-0.001-0.642v0.033-348.992c0.001-0.19 0.001-0.415 0.001-0.64 0-97.679-79.185-176.864-176.864-176.864-0.147 0-0.293 0-0.44 0.001h-349.161c-0.2-0.001-0.436-0.001-0.672-0.001-97.679 0-176.864 79.185-176.864 176.864 0 0.147 0 0.293 0.001 0.44v-0.022 349.184c-0.001 0.19-0.001 0.416-0.001 0.641 0 97.697 79.199 176.896 176.896 176.896 0.214 0 0.428 0 0.642-0.001h-0.033zM736 768c-17.76 0-32-14.24-32-32s14.24-32 32-32c17.76 0 32 14.24 32 32s-14.24 32-32 32zM480 704c-123.264 0-224-100.736-224-224s100.736-224 224-224 224 100.736 224 224-100.736 224-224 224zM480 640c88.736 0 160-71.264 160-160s-71.264-160-160-160-160 71.264-160 160 71.264 160 160 160z" />
<glyph unicode="&#xe91a;" glyph-name="Property-1facebook" d="M480 896c-229.376 0-416-186.624-416-416s186.624-416 416-416 416 186.624 416 416-186.624 416-416 416zM480 832c194.784 0 352-157.216 352-352 0-177.056-130.080-322.624-300-347.744v245.984h99.36l15.648 100.896h-115.008v55.232c0 41.92 13.632 79.136 52.864 79.136h63.040v88.128c-11.104 1.472-34.496 4.736-78.784 4.736-92.416 0-146.624-48.832-146.624-160v-67.104h-95.008v-101.024h95.136v-245.12c-167.264 27.392-294.624 171.712-294.624 346.88 0 194.784 157.216 352 352 352z" />
<glyph unicode="&#xe91b;" glyph-name="Property-1ajuda" d="M512 896c-247.424 0-448-200.576-448-448s200.576-448 448-448v0c247.424 0 448 200.576 448 448s-200.576 448-448 448v0zM512 64c-212.077 0-384 171.923-384 384s171.923 384 384 384v0c212.077 0 384-171.923 384-384s-171.923-384-384-384v0zM512 160c26.51 0 48 21.49 48 48s-21.49 48-48 48v0c-26.51 0-48-21.49-48-48s21.49-48 48-48v0zM544 704h-48c-0.095 0-0.208 0-0.32 0-79.352 0-143.68-64.328-143.68-143.68 0-0.113 0-0.225 0-0.338v0.017-16h64v16c0 44.183 35.817 80 80 80v0h48c44.183 0 80-35.817 80-80s-35.817-80-80-80v0h-64v-144h64v80c79.529 0 144 64.471 144 144s-64.471 144-144 144v0z" />
<glyph unicode="&#xe91c;" glyph-name="Property-1chevron-baixo" d="M512 256l-320 320 44.8 44.8 275.2-275.2 275.2 275.2 44.8-44.8-320-320z" />
<glyph unicode="&#xe91d;" glyph-name="Property-1som-off" d="M992 562.88l-45.12 45.12-114.88-114.88-114.88 114.88-45.12-45.12 114.88-114.88-114.88-114.88 45.12-45.12 114.88 114.88 114.88-114.88 45.12 45.12-114.88 114.88 114.88 114.88zM576 0c-8.901 0.038-16.938 3.704-22.715 9.595l-0.005 0.005-243.84 246.4h-213.44c-17.673 0-32 14.327-32 32v0 320c0 17.673 14.327 32 32 32v0h213.44l243.84 246.4c5.784 5.751 13.757 9.305 22.56 9.305s16.776-3.555 22.562-9.307l-0.002 0.002c5.822-5.709 9.471-13.616 9.6-22.376v-832.024c0-17.673-14.327-32-32-32v0zM128 320h192c0.073 0.001 0.159 0.001 0.245 0.001 9.641 0 18.431-3.644 25.068-9.63l-0.033 0.029 198.72-200.64v676.48l-198.72-200.64c-6.603-5.957-15.393-9.601-25.035-9.601-0.086 0-0.172 0-0.259 0.001h-191.987v-256z" />
<glyph unicode="&#xe91e;" glyph-name="Property-1marketing" d="M896 256h64v-256h-64v256zM768 384h64v-384h-64v384zM640 128h64v-128h-64v128zM288 448c-123.712 0-224-100.288-224-224s100.288-224 224-224c123.712 0 224 100.288 224 224v0c-0.146 123.653-100.347 223.855-223.986 224h-0.014zM444.768 256h-124.768v124.768c62.831-13.288 111.48-61.937 124.582-123.719l0.186-1.049zM288 64c-0.001 0-0.002 0-0.003 0-88.366 0-160 71.634-160 160 0 77.039 54.448 141.362 126.961 156.585l1.042 0.183v-124.768c0-35.346 28.654-64 64-64v0h124.768c-15.499-73.502-79.766-127.897-156.757-128h-0.011zM721.12 576l128 192h110.88v64h-145.12l-128-192h-110.88v256h-64v-384c0-35.346 28.654-64 64-64v0h384v64h-384v64h145.12zM352 704c17.673 0 32 14.327 32 32s-14.327 32-32 32v0c-17.673 0-32-14.327-32-32s14.327-32 32-32v0zM288 576c17.673 0 32 14.327 32 32s-14.327 32-32 32v0c-17.673 0-32-14.327-32-32s14.327-32 32-32v0zM224 768c17.673 0 32 14.327 32 32s-14.327 32-32 32v0c-17.673 0-32-14.327-32-32s14.327-32 32-32v0zM160 640c17.673 0 32 14.327 32 32s-14.327 32-32 32v0c-17.673 0-32-14.327-32-32s14.327-32 32-32v0zM96 512c17.673 0 32 14.327 32 32s-14.327 32-32 32v0c-17.673 0-32-14.327-32-32s14.327-32 32-32v0z" />
<glyph unicode="&#xe91f;" glyph-name="Property-1tech" d="M832 896h128v-128h-128v128zM832 704h128v-128h-128v128zM640 896h128v-128h-128v128zM640 704h128v-128h-128v128zM896 448v-192h-768v512h384v64h-384c-35.346 0-64-28.654-64-64v0-512c0-35.346 28.654-64 64-64v0h256v-128h-128v-64h512v64h-128v128h256c35.346 0 64 28.654 64 64v0 192h-64zM576 64h-128v128h128v-128z" />
<glyph unicode="&#xe920;" glyph-name="Property-1play" d="M352 224c-17.673 0-32 14.327-32 32v0 384c0 0.004 0 0.010 0 0.015 0 17.673 14.327 32 32 32 5.214 0 10.136-1.247 14.486-3.459l-0.182 0.084 384-192c10.592-5.364 17.726-16.169 17.726-28.64s-7.134-23.276-17.544-28.556l-0.182-0.084-384-192c-4.16-2.119-9.072-3.36-14.274-3.36-0.011 0-0.021 0-0.032 0h0.002zM384 588.224v-280.448l280.448 140.224-280.448 140.224zM512 832c212.077 0 384-171.923 384-384s-171.923-384-384-384v0c-212.077 0-384 171.923-384 384s171.923 384 384 384v0zM512 896c-247.424 0-448-200.576-448-448s200.576-448 448-448v0c247.424 0 448 200.576 448 448s-200.576 448-448 448v0z" />
<glyph unicode="&#xe921;" glyph-name="Property-1diagonal-direita" d="M320 768v-64h402.88l-530.88-530.88 45.12-45.12 530.88 530.88v-402.88h64v512h-512z" />
</font>
</defs>
</svg>
